# xmcd
#
# Track frame offsets:
#	150
#	20201
#	36354
#	55933
#	76545
#	140308
#
# Disc length: 2059 seconds
#
# Revision: 0
# Processed by: cddbd v1.5.2PL0 Copyright (c) Steve Scherf et al.
# Submitted via: EasyCDDAExtractor 11.1.0.1
#
DISCID=46080906
DTITLE=Richard Betts - Highway Call 1974
DYEAR=1974
DGENRE=Classic Rock
TTITLE0=Long Time Gone
TTITLE1=Rain
TTITLE2=Highway Call
TTITLE3=Let Nature Sing
TTITLE4=Hand Picked
TTITLE5=Kissimmee Kid
EXTD=
EXTT0=
EXTT1=
EXTT2=
EXTT3=
EXTT4=
EXTT5=
PLAYORDER=
